# File created by Blade
# Date/Time:  Tue Sep 30 19:29:42 2014
#---------------------------------------------------------
:version 1.10
:name HOM
:units
  mass 1.0
  length 1.000000
  angle deg
:documentation
     Acclaim Skeleton File
:root
   axis xyz
   order TX TY TZ RX RY RZ
   position 0.000000 0.000000 0.000000
   orientation 0 0 0
:bonedata
   begin
      id 1
      name RightUpLeg_dum
      direction -1.000000 0.000000 0.000000
      length 3.766986
      axis 0.0 0.0 0.0 xyz
   end
   begin
      id 2
      name LeftUpLeg_dum
      direction 1.000000 0.000000 0.000000
      length 3.766986
      axis 0.0 0.0 0.0 xyz
   end
   begin
      id 3
      name Spine_dum
      direction 0.000000 1.000000 0.000000
      length 7.779697
      axis 0.0 0.0 0.0 xyz
   end
   begin
      id 4
      name RightUpLeg
      direction 0.000000 -1.000000 0.000000
      length 18.017682
      axis 0.0 0.0 0.0 xyz
      dof rx ry rz
   end
   begin
      id 5
      name RightLeg
      direction 0.000000 -1.000000 0.000000
      length 16.881075
      axis 0.0 0.0 0.0 xyz
      dof rx ry rz
   end
   begin
      id 6
      name RightFoot
      direction 0.000000 -0.258819 0.965926
      length 5.770812
      axis 15.0 0.0 0.0 xyz
      dof rx ry rz
   end
   begin
      id 7
      name RightToeBase
      direction 0.000000 0.000000 1.000000
      length 2.952750
      axis 0.0 0.0 0.0 xyz
      dof rx ry rz
   end
   begin
      id 8
      name LeftUpLeg
      direction 0.000000 -1.000000 0.000000
      length 18.017682
      axis 0.0 0.0 0.0 xyz
      dof rx ry rz
   end
   begin
      id 9
      name LeftLeg
      direction 0.000000 -1.000000 0.000000
      length 16.881075
      axis 0.0 0.0 0.0 xyz
      dof rx ry rz
   end
   begin
      id 10
      name LeftFoot
      direction 0.000000 -0.258819 0.965926
      length 5.770812
      axis 15.0 0.0 0.0 xyz
      dof rx ry rz
   end
   begin
      id 11
      name LeftToeBase
      direction 0.000000 0.000000 1.000000
      length 2.952750
      axis 0.0 0.0 0.0 xyz
      dof rx ry rz
   end
   begin
      id 12
      name Spine
      direction 0.000000 1.000000 0.000000
      length 0.000000
      axis 0.0 0.0 0.0 xyz
      dof rx ry rz
   end
   begin
      id 13
      name Spine_dum1
      direction 0.000000 1.000000 0.000000
      length 10.941760
      axis 0.0 0.0 0.0 xyz
   end
   begin
      id 14
      name Spine_dum2
      direction 0.000000 1.000000 0.000000
      length 10.941760
      axis 0.0 0.0 0.0 xyz
   end
   begin
      id 15
      name Spine_dum3
      direction 0.000000 1.000000 0.000000
      length 16.646042
      axis 0.0 0.0 0.0 xyz
   end
   begin
      id 16
      name RightShoulder
      direction -1.000000 0.000000 0.000000
      length 7.708937
      axis 0.0 0.0 90.0 xyz
      dof rx ry rz
   end
   begin
      id 17
      name RightArm
      direction -1.000000 0.000000 0.000000
      length 11.521345
      axis 0.0 0.0 90.0 xyz
      dof rx ry rz
   end
   begin
      id 18
      name RightForeArm
      direction -1.000000 0.000000 0.000000
      length 10.175898
      axis 0.0 0.0 90.0 xyz
      dof ry rz rx
   end
   begin
      id 19
      name RightHand
      direction -1.000000 0.000000 0.000000
      length 0.000000
      axis 0.0 0.0 90.0 xyz
      dof rx ry rz
   end
   begin
      id 20
      name RightHand_dum1
      direction -1.000000 0.000000 0.000000
      length 3.937000
      axis 0.0 0.0 90.0 xyz
   end
   begin
      id 21
      name RightHand_dum2
      direction 0.000000 0.000000 0.000000
      length 0.000000
      axis 0.0 0.0 90.0 xyz
   end
   begin
      id 22
      name RightHandThumb1
      direction 0.000000 0.000000 1.000000
      length 3.937000
      axis 0.0 0.0 90.0 xyz
      dof rx rz ry
   end
   begin
      id 23
      name LeftShoulder
      direction 1.000000 0.000000 0.000000
      length 7.708937
      axis 0.0 0.0 -90.0 xyz
      dof rx ry rz
   end
   begin
      id 24
      name LeftArm
      direction 1.000000 0.000000 0.000000
      length 11.521345
      axis 0.0 0.0 -90.0 xyz
      dof rx ry rz
   end
   begin
      id 25
      name LeftForeArm
      direction 1.000000 0.000000 0.000000
      length 10.175898
      axis 0.0 0.0 -90.0 xyz
      dof ry rz rx
   end
   begin
      id 26
      name LeftHand
      direction 1.000000 0.000000 0.000000
      length 0.000000
      axis 0.0 0.0 -90.0 xyz
      dof rx ry rz
   end
   begin
      id 27
      name LeftHand_dum1
      direction 1.000000 0.000000 0.000000
      length 3.937000
      axis 0.0 0.0 -90.0 xyz
   end
   begin
      id 28
      name LeftHand_dum2
      direction 0.000000 0.000000 0.000000
      length 0.000000
      axis 0.0 0.0 -90.0 xyz
   end
   begin
      id 29
      name LeftHandThumb1
      direction 0.000000 0.000000 1.000000
      length 3.937000
      axis 0.0 0.0 -90.0 xyz
      dof rx rz ry
   end
   begin
      id 30
      name Head
      direction 0.000000 1.000000 0.000000
      length 4.527550
      axis 0.0 0.0 0.0 xyz
      dof rx ry rz
   end
:hierarchy
   begin
      root RightUpLeg_dum LeftUpLeg_dum Spine_dum
      RightUpLeg_dum RightUpLeg
      LeftUpLeg_dum LeftUpLeg
      Spine_dum Spine
      RightUpLeg RightLeg
      RightLeg RightFoot
      RightFoot RightToeBase
      LeftUpLeg LeftLeg
      LeftLeg LeftFoot
      LeftFoot LeftToeBase
      Spine Spine_dum1 Spine_dum2 Spine_dum3
      Spine_dum1 RightShoulder
      Spine_dum2 LeftShoulder
      Spine_dum3 Head
      RightShoulder RightArm
      RightArm RightForeArm
      RightForeArm RightHand
      RightHand RightHand_dum1 RightHand_dum2
      RightHand_dum2 RightHandThumb1
      LeftShoulder LeftArm
      LeftArm LeftForeArm
      LeftForeArm LeftHand
      LeftHand LeftHand_dum1 LeftHand_dum2
      LeftHand_dum2 LeftHandThumb1
   end

# File created by Blade
# Date/Time:  Mon Sep 22 17:38:34 2014
# Frame Rate: 120.000 fps
#------------------------------------------------------
:FULLY-SPECIFIED
:DEGREES
843
root 1.537472 37.606535 4.845307 -14.844395 -35.354895 8.209408
RightUpLeg 10.382401 8.927978 -0.486367
RightLeg 5.090289 -0.000000 -0.000000
RightFoot -9.787584 -2.850210 9.731309
RightToeBase 12.990851 -0.000000 -0.000000
LeftUpLeg -41.217849 3.282042 -7.674189
LeftLeg 69.769864 -0.000000 -0.000000
LeftFoot 11.482012 28.948798 -31.003028
LeftToeBase 0.329954 -0.000000 -0.000000
Spine 19.740383 0.961695 -3.237613
RightShoulder 2.640006 -28.236057 -11.587188
RightArm 23.396814 -21.786382 58.326248
RightForeArm 2.921195 -0.000000 44.666037
RightHand -0.522253 0.000000 -1.203693
RightHandThumb1 -24.326973 -0.000000 -32.862282
LeftShoulder -20.656821 29.328389 2.125247
LeftArm 48.774744 -41.234981 -59.971236
LeftForeArm 37.815464 0.000000 54.054875
LeftHand -17.403559 -0.000000 -24.564913
LeftHandThumb1 -26.253704 0.000000 33.147579
Head 16.207058 30.863393 -5.296152
844
root 1.521924 37.591464 4.820577 -14.644858 -34.565433 7.950286
RightUpLeg 10.503942 8.555757 -0.337520
RightLeg 4.936305 -0.000000 -0.000000
RightFoot -9.862240 -3.260888 9.735710
RightToeBase 12.992762 -0.000000 -0.000000
LeftUpLeg -41.420318 4.261655 -8.296928
LeftLeg 69.843916 -0.000000 -0.000000
LeftFoot 11.558413 28.657404 -31.348730
LeftToeBase 0.630913 -0.000000 -0.000000
Spine 19.782679 0.515051 -3.189293
RightShoulder 2.737782 -28.219758 -11.564132
RightArm 23.185343 -21.710751 58.580447
RightForeArm 2.899120 -0.000000 44.529368
RightHand -0.514677 -0.000000 -1.265607
RightHandThumb1 -24.326973 -0.000000 -32.862282
LeftShoulder -20.465230 29.332456 2.298475
LeftArm 49.058817 -41.122013 -60.033083
LeftForeArm 37.758655 -0.000000 54.040974
LeftHand -17.479685 -0.000000 -24.733095
LeftHandThumb1 -26.253704 0.000000 33.147579
Head 16.138957 30.445079 -5.260435
845
root 1.510959 37.576575 4.794967 -14.435131 -33.750988 7.711352
RightUpLeg 10.590283 8.170568 -0.212476
RightLeg 4.791533 -0.000000 -0.000000
RightFoot -9.935817 -3.668409 9.747094
RightToeBase 12.915707 -0.000000 -0.000000
LeftUpLeg -41.626818 5.120597 -8.895267
LeftLeg 69.902705 -0.000000 -0.000000
LeftFoot 11.602161 28.344136 -31.629785
LeftToeBase 0.477079 -0.000000 -0.000000
Spine 19.826062 0.030464 -3.154298
RightShoulder 2.660765 -28.265889 -11.473135
RightArm 23.241691 -21.729069 58.635511
RightForeArm 3.056637 -0.000000 44.329827
RightHand -0.509418 -0.000000 -1.261383
RightHandThumb1 -24.326973 -0.000000 -32.862282
LeftShoulder -20.336573 29.261292 2.435816
LeftArm 49.352572 -40.958475 -60.051251
LeftForeArm 37.592659 0.000000 53.956852
LeftHand -17.359192 -0.000000 -24.588204
LeftHandThumb1 -26.253704 0.000000 33.147579
Head 16.084071 30.242136 -5.145181
846
root 1.496726 37.562689 4.773310 -14.271805 -32.899189 7.492971
RightUpLeg 10.723603 7.719352 -0.099795
RightLeg 4.637254 -0.000000 -0.000000
RightFoot -10.016721 -4.062704 9.687355
RightToeBase 12.868371 -0.000000 -0.000000
LeftUpLeg -41.778721 5.878044 -9.469983
LeftLeg 69.950488 -0.000000 -0.000000
LeftFoot 11.573733 28.141992 -31.779867
LeftToeBase 0.453945 -0.000000 -0.000000
Spine 19.896109 -0.501821 -3.155080
RightShoulder 2.675225 -28.297806 -11.407682
RightArm 23.219598 -21.680789 58.749395
RightForeArm 3.084370 0.000000 44.183966
RightHand -0.541632 -0.000000 -1.177378
RightHandThumb1 -24.326973 -0.000000 -32.862282
LeftShoulder -20.183735 29.180018 2.587220
LeftArm 49.556272 -40.807923 -59.989619
LeftForeArm 37.464010 -0.000000 53.886693
LeftHand -17.366729 -0.000000 -24.417607
LeftHandThumb1 -26.253704 0.000000 33.147579
Head 16.072412 30.119115 -4.971585
847
root 1.480757 37.548461 4.751581 -14.103662 -32.026504 7.236648
RightUpLeg 10.887393 7.323389 0.065257
RightLeg 4.453443 -0.000000 -0.000000
RightFoot -10.102581 -4.558769 9.721043
RightToeBase 12.834445 -0.000000 -0.000000
LeftUpLeg -41.908730 6.540149 -9.980843
LeftLeg 70.014117 -0.000000 -0.000000
LeftFoot 11.507736 28.056014 -31.769999
LeftToeBase 0.104552 -0.000000 -0.000000
Spine 20.007756 -1.075174 -3.117200
RightShoulder 2.673723 -28.210826 -11.340308
RightArm 23.081545 -21.687729 58.896439
RightForeArm 3.131058 -0.000000 44.092420
RightHand -0.575500 -0.000000 -1.153783
RightHandThumb1 -24.326973 -0.000000 -32.862282
LeftShoulder -20.050447 29.029242 2.741946
LeftArm 49.723379 -40.620912 -59.914573
LeftForeArm 37.465648 -0.000000 53.820911
LeftHand -17.309613 -0.000000 -24.372687
LeftHandThumb1 -26.253704 0.000000 33.147579
Head 16.104603 30.270145 -4.650598
848
root 1.459176 37.535420 4.733011 -14.001984 -31.153450 7.022548
RightUpLeg 11.105147 6.969711 0.212910
RightLeg 4.254125 -0.000000 -0.000000
RightFoot -10.198537 -5.062003 9.766596
RightToeBase 12.910952 -0.000000 -0.000000
LeftUpLeg -41.964727 7.165124 -10.433711
LeftLeg 70.066550 -0.000000 -0.000000
LeftFoot 11.235961 27.951822 -32.089794
LeftToeBase 0.351880 -0.000000 -0.000000
Spine 20.135605 -1.570156 -3.133250
RightShoulder 2.596503 -28.216654 -11.190742
RightArm 23.047942 -21.688799 58.959238
RightForeArm 3.206686 -0.000000 43.996792
RightHand -0.639439 -0.000000 -1.152511
RightHandThumb1 -24.326973 -0.000000 -32.862282
LeftShoulder -19.808269 28.881255 3.008013
LeftArm 49.833787 -40.429245 -59.821781
LeftForeArm 37.518276 -0.000000 53.782994
LeftHand -17.303249 -0.000000 -24.396459
LeftHandThumb1 -26.253704 0.000000 33.147579
Head 16.065064 30.087981 -4.443565
849
root 1.437238 37.522384 4.709689 -13.888746 -30.299086 6.811872
RightUpLeg 11.285810 6.644955 0.369329
RightLeg 4.071555 -0.000000 -0.000000
RightFoot -10.284877 -5.581249 9.864550
RightToeBase 12.879054 -0.000000 -0.000000
LeftUpLeg -42.026255 7.750870 -10.828219
LeftLeg 70.101525 -0.000000 -0.000000
LeftFoot 11.158314 27.868573 -32.119877
LeftToeBase 0.238025 -0.000000 -0.000000
Spine 20.224614 -2.055608 -3.165473
RightShoulder 2.614611 -28.257966 -11.062281
RightArm 22.972774 -21.617436 59.050833
RightForeArm 3.174071 -0.000000 43.932628
RightHand -0.613597 0.000000 -1.078309
RightHandThumb1 -24.326973 -0.000000 -32.862282
LeftShoulder -19.546902 28.811723 3.336530
LeftArm 49.994190 -40.245701 -59.834988
LeftForeArm 37.646837 0.000000 53.731155
LeftHand -17.309981 -0.000000 -24.367290
LeftHandThumb1 -26.253704 0.000000 33.147579
Head 15.981138 29.676586 -4.389707
850
root 1.412759 37.510273 4.686501 -13.811214 -29.471192 6.594912
RightUpLeg 11.477947 6.293001 0.537504
RightLeg 3.928951 -0.000000 -0.000000
RightFoot -10.394563 -6.052210 9.957714
RightToeBase 12.964624 -0.000000 -0.000000
LeftUpLeg -42.033439 8.339823 -11.161663
LeftLeg 70.116112 -0.000000 -0.000000
LeftFoot 10.963276 27.902223 -32.218934
LeftToeBase 0.292161 -0.000000 -0.000000
Spine 20.379609 -2.506388 -3.176656
RightShoulder 2.624818 -28.164308 -10.937292
RightArm 22.778326 -21.561199 59.223573
RightForeArm 3.133022 -0.000000 43.906228
RightHand -0.782457 -0.000000 -1.043186
RightHandThumb1 -24.326973 -0.000000 -32.862282
LeftShoulder -19.268958 28.723921 3.679010
LeftArm 50.129504 -40.059708 -59.831221
LeftForeArm 37.794933 0.000000 53.675884
LeftHand -17.339494 -0.000000 -24.446231
LeftHandThumb1 -26.253704 0.000000 33.147579
Head 15.954979 29.491703 -4.182093
851
root 1.389017 37.497894 4.667161 -13.749515 -28.675387 6.391521
RightUpLeg 11.664249 5.898100 0.681305
RightLeg 3.802608 -0.000000 -0.000000
RightFoot -10.487827 -6.443567 10.035931
RightToeBase 13.004732 -0.000000 -0.000000
LeftUpLeg -42.010302 8.869634 -11.427786
LeftLeg 70.117557 -0.000000 -0.000000
LeftFoot 10.862228 27.884418 -32.271690
LeftToeBase 0.285581 -0.000000 -0.000000
Spine 20.528876 -2.904652 -3.177643
RightShoulder 2.556242 -28.163602 -10.788083
RightArm 22.720198 -21.552239 59.268814
RightForeArm 3.257312 -0.000000 43.856840
RightHand -0.735425 -0.000000 -0.952504
RightHandThumb1 -24.326973 -0.000000 -32.862282
LeftShoulder -18.969894 28.683344 4.052883
LeftArm 50.296638 -39.874985 -59.876199
LeftForeArm 37.792412 -0.000000 53.607399
LeftHand -17.350772 0.000000 -24.245413
LeftHandThumb1 -26.253704 0.000000 33.147579
Head 15.939603 29.313182 -3.950003
852
root 1.359390 37.486165 4.653620 -13.701786 -27.806453 6.175193
RightUpLeg 11.894118 5.415301 0.824527
RightLeg 3.653591 -0.000000 -0.000000
RightFoot -10.566022 -6.825906 10.098083
RightToeBase 12.980813 -0.000000 -0.000000
LeftUpLeg -41.927386 9.264624 -11.634110
LeftLeg 70.103431 -0.000000 -0.000000
LeftFoot 10.821974 27.803130 -32.372984
LeftToeBase 0.091503 -0.000000 -0.000000
Spine 20.672117 -3.389771 -3.197269
RightShoulder 2.522967 -28.226054 -10.654566
RightArm 22.712452 -21.533179 59.309720
RightForeArm 3.251584 -0.000000 43.797903
RightHand -0.752156 0.000000 -1.034683
RightHandThumb1 -24.326973 -0.000000 -32.862282
LeftShoulder -18.719490 28.710659 4.404946
LeftArm 50.560679 -39.690775 -59.972973
LeftForeArm 37.785984 0.000000 53.511617
LeftHand -17.419520 0.000000 -24.243430
LeftHandThumb1 -26.253704 0.000000 33.147579
Head 15.974942 29.165703 -3.685639
853
root 1.330895 37.474815 4.640945 -13.714438 -27.023360 5.996245
RightUpLeg 12.133678 4.969915 0.942086
RightLeg 3.539190 -0.000000 -0.000000
RightFoot -10.650703 -7.123246 10.147395
RightToeBase 13.019798 -0.000000 -0.000000
LeftUpLeg -41.787830 9.692776 -11.771930
LeftLeg 70.076600 -0.000000 -0.000000
LeftFoot 10.762938 27.696162 -32.546685
LeftToeBase 0.077560 -0.000000 -0.000000
Spine 20.861749 -3.784492 -3.231675
RightShoulder 2.480226 -28.300282 -10.527022
RightArm 22.734230 -21.486623 59.348393
RightForeArm 3.203542 0.000000 43.733837
RightHand -0.631856 -0.000000 -1.051087
RightHandThumb1 -24.326973 -0.000000 -32.862282
LeftShoulder -18.470569 28.747557 4.774866
LeftArm 50.852758 -39.497291 -60.091420
LeftForeArm 37.820861 -0.000000 53.399160
LeftHand -17.505315 -0.000000 -24.228252
LeftHandThumb1 -26.253704 0.000000 33.147579
Head 15.972432 28.968051 -3.475596
854
root 1.304222 37.461761 4.622356 -13.680322 -26.312043 5.820785
RightUpLeg 12.283211 4.584636 1.063355
RightLeg 3.466802 -0.000000 -0.000000
RightFoot -10.767353 -7.404362 10.230351
RightToeBase 13.043444 -0.000000 -0.000000
LeftUpLeg -41.707082 10.087583 -11.848941
LeftLeg 70.036381 -0.000000 -0.000000
LeftFoot 10.760047 27.602045 -32.569770
LeftToeBase 0.292300 -0.000000 -0.000000
Spine 21.000843 -4.117649 -3.242174
RightShoulder 2.403398 -28.327604 -10.397356
RightArm 22.738919 -21.443496 59.403738
RightForeArm 3.272958 -0.000000 43.728609
RightHand -0.764567 -0.000000 -0.967379
RightHandThumb1 -24.326973 -0.000000 -32.862282
LeftShoulder -18.217771 28.734133 5.136202
LeftArm 51.049332 -39.286974 -60.091149
LeftForeArm 37.805921 -0.000000 53.276995
LeftHand -17.506670 -0.000000 -24.188865
LeftHandThumb1 -26.253704 0.000000 33.147579
Head 15.962433 28.833826 -3.268435
